<svg width="1024" height="1024" viewBox="0 0 100 100" xmlns="http://www.w3.org/2000/svg">
  <rect width="100" height="100" rx="22" fill="#010E05"/>
  <rect x="20" y="23" width="8" height="8" rx="1.5" fill="#00FF41"/>
  <rect x="32" y="23" width="8" height="8" rx="1.5" fill="#00FF41"/>
  <rect x="44" y="23" width="8" height="8" rx="1.5" fill="#00B82E" opacity=".6"/>
  <rect x="56" y="23" width="8" height="8" rx="1.5" fill="#00FF41"/>
  <rect x="68" y="23" width="8" height="8" rx="1.5" fill="#00B82E" opacity=".3"/>
  <rect x="20" y="35" width="8" height="8" rx="1.5" fill="#00B82E" opacity=".4"/>
  <rect x="32" y="35" width="8" height="8" rx="1.5" fill="#00FF41"/>
  <rect x="44" y="35" width="8" height="8" rx="1.5" fill="#00FF41"/>
  <rect x="56" y="35" width="8" height="8" rx="1.5" fill="#00B82E" opacity=".5"/>
  <rect x="68" y="35" width="8" height="8" rx="1.5" fill="#00FF41"/>
  <rect x="20" y="47" width="8" height="8" rx="1.5" fill="#00FF41"/>
  <rect x="32" y="47" width="8" height="8" rx="1.5" fill="#00B82E" opacity=".3"/>
  <rect x="44" y="47" width="8" height="8" rx="1.5" fill="#00FF41"/>
  <rect x="56" y="47" width="8" height="8" rx="1.5" fill="#00FF41"/>
  <rect x="68" y="47" width="8" height="8" rx="1.5" fill="#00B82E" opacity=".6"/>
  <rect x="20" y="59" width="8" height="8" rx="1.5" fill="#00B82E" opacity=".5"/>
  <rect x="32" y="59" width="8" height="8" rx="1.5" fill="#00FF41"/>
  <rect x="44" y="59" width="20" height="8" rx="1.5" fill="#00FF41"/>
  <rect x="68" y="59" width="8" height="8" rx="1.5" fill="#00FF41"/>
  <rect x="20" y="71" width="8" height="8" rx="1.5" fill="#00FF41"/>
  <rect x="32" y="71" width="8" height="8" rx="1.5" fill="#00B82E" opacity=".4"/>
  <rect x="44" y="71" width="8" height="8" rx="1.5" fill="#00B82E" opacity=".6"/>
  <rect x="56" y="71" width="8" height="8" rx="1.5" fill="#00FF41"/>
  <rect x="68" y="71" width="8" height="8" rx="1.5" fill="#00B82E" opacity=".3"/>
</svg>
